# xmcd CD database file generated by Grip 3.2.0
# 
# Track frame offsets:
#       183
#       17325
#       30825
#       49423
#       79400
#       127450
#       135978
#       152835
#       169928
#       189788
#       201105
#       213490
#       230433
#       247698
#       261158
#       289770
#       306010
#       324198
# 
# Disc length: 4589 seconds
# 
# Revision: 6
# Processed by: cddbd v1.5.2PL0 Copyright (c) Steve Scherf et al.
# Submitted via: Grip 3.2.0
# 
DISCID=ef11eb12
DTITLE=Various Artist - Blues Legends [CD1]
DYEAR=1993
DGENRE=Blues
TTITLE0=Buddy Guy - We're Ready
TTITLE1=Earl Hooker - Blues For Dancers
TTITLE2=Byther Smith - Come On In This House
TTITLE3=Luther Allison - You Upset Me Baby
TTITLE4=Jimi Hendrix - Red House
TTITLE5=Johnny "Guitar" Watson - Looking Back
TTITLE6=Albert Collins - The Things I Used To Do
TTITLE7=John Lee Hooker - Goin' Mad Blues
TTITLE8=Fenton Robinson - Somebody Loan Me A Dime
TTITLE9=Ike Turner - Ho Ho
TTITLE10=Buddy Guy - You Sure Can't Do
TTITLE11=Peter Green and Mick Green and The Enemy Within - Chinese White Boy
TTITLE12=Matt "Guitar" Murphy - Taking Off
TTITLE13=Mississippi Fred McDowell - I Asked For Whisky
TTITLE14=Billy Boy Arnold and Tony McPhee - Blue And Lonesome
TTITLE15=U. P. Wilson - 7 Comes 11
TTITLE16=Roy Gaines and The Crusaders - Hell Of A Night
TTITLE17=Earl Hooker - The End Of The Blues
EXTD=keyword: blues YEAR: 1993
EXTT0=
EXTT1=
EXTT2=
EXTT3=
EXTT4=
EXTT5=
EXTT6=
EXTT7=
EXTT8=
EXTT9=
EXTT10=
EXTT11=
EXTT12=
EXTT13=
EXTT14=
EXTT15=
EXTT16=
EXTT17=
PLAYORDER=
